<svg width="20" height="20" fill="none" xmlns="http://www.w3.org/2000/svg"><mask id="a" style="mask-type:alpha" maskUnits="userSpaceOnUse" x="0" y="0" width="20" height="20"><path fill="#D9D9D9" d="M0 0h20v20H0z"/></mask><g mask="url(#a)"><path d="M10.004 16.792a.532.532 0 0 1-.387-.156.519.519 0 0 1-.159-.386v-5.614h-.187a5.584 5.584 0 0 1-3.933-1.6 5.493 5.493 0 0 1-1.268-1.85 5.62 5.62 0 0 1-.437-2.188V4.32a.64.64 0 0 1 .19-.472.64.64 0 0 1 .472-.19h.68c.733 0 1.434.139 2.103.416a5.685 5.685 0 0 1 1.8 1.193c.408.394.745.843 1.01 1.346a5.7 5.7 0 0 1 .559 1.579c.027-.07.057-.134.092-.193a.803.803 0 0 1 .124-.16A4.84 4.84 0 0 1 12.57 6.23a5.631 5.631 0 0 1 2.464-.562h.68a.64.64 0 0 1 .471.19.64.64 0 0 1 .19.472v.679c0 .76-.145 1.49-.437 2.19a5.362 5.362 0 0 1-1.275 1.847 5.756 5.756 0 0 1-1.714 1.033c-.625.24-1.281.36-1.97.36h-.437v3.812a.526.526 0 0 1-.537.542zM9.466 9.49c0-.638-.108-1.26-.323-1.864a4.178 4.178 0 0 0-2.562-2.563 5.515 5.515 0 0 0-1.865-.323c0 .64.108 1.26.323 1.865a4.178 4.178 0 0 0 2.563 2.562 5.515 5.515 0 0 0 1.864.323zm1.075 2.01c.64 0 1.26-.108 1.865-.323a4.179 4.179 0 0 0 2.563-2.562 5.515 5.515 0 0 0 .322-1.865c-.639 0-1.26.108-1.864.323a4.177 4.177 0 0 0-2.563 2.562 5.515 5.515 0 0 0-.323 1.865z" fill="#fff"/></g></svg>