<svg width="16" height="12" viewBox="0 0 16 12" fill="none" xmlns="http://www.w3.org/2000/svg">
<path d="M13.5177 6.53364H0.950337C0.796865 6.53364 0.668226 6.48212 0.564421 6.37908C0.460601 6.27605 0.408691 6.14839 0.408691 5.99608C0.408691 5.84378 0.460601 5.71474 0.564421 5.60898C0.668226 5.50321 0.796865 5.45033 0.950337 5.45033H13.5177L9.96221 1.90154C9.85136 1.79117 9.79684 1.66433 9.79863 1.52104C9.80041 1.37775 9.85632 1.25062 9.96636 1.13964C10.08 1.02519 10.2072 0.967957 10.348 0.967957C10.4889 0.967957 10.617 1.02565 10.7324 1.14104L15.1186 5.52725C15.1827 5.5969 15.2307 5.67049 15.2628 5.74802C15.2949 5.82555 15.3109 5.90862 15.3109 5.99723C15.3109 6.08583 15.2947 6.17014 15.2624 6.25017C15.2301 6.33018 15.1822 6.4017 15.1186 6.46473L10.7324 10.851C10.6183 10.9663 10.4931 11.0205 10.3568 11.0136C10.2204 11.0067 10.0972 10.9488 9.98719 10.8401C9.8718 10.7234 9.81544 10.5913 9.81811 10.4436C9.82079 10.296 9.87715 10.1695 9.98719 10.0641L13.5177 6.53364Z" fill="white"/>
</svg>
