<svg width="16" height="12" fill="none" xmlns="http://www.w3.org/2000/svg"><path d="M2.49 6.534h12.56a.526.526 0 0 0 .542-.538.532.532 0 0 0-.156-.387.519.519 0 0 0-.386-.159H2.483l3.555-3.548a.512.512 0 0 0 .164-.381.537.537 0 0 0-.168-.381.526.526 0 0 0-.382-.172.533.533 0 0 0-.384.173L.882 5.527a.75.75 0 0 0-.144.221.67.67 0 0 0 0 .502c.032.08.08.152.144.215l4.386 4.386c.114.115.243.17.386.163a.566.566 0 0 0 .38-.174.535.535 0 0 0 .17-.396.52.52 0 0 0-.17-.38l-3.543-3.53z" fill="#18181B"/></svg>