<svg id="svg" xmlns="http://www.w3.org/2000/svg" xmlns:xlink="http://www.w3.org/1999/xlink" width="400" height="89.80645161290323" viewBox="0, 0, 400,89.80645161290323"><g id="svgg"><path id="path0" d="M106.700 16.016 C 103.205 17.033,103.626 22.042,107.253 22.584 C 111.206 23.174,112.624 17.648,108.901 16.158 C 107.745 15.696,107.793 15.699,106.700 16.016 M131.613 21.935 C 131.613 25.342,131.541 28.129,131.453 28.129 C 131.366 28.129,130.884 27.769,130.383 27.329 C 125.541 23.078,116.753 26.983,115.107 34.118 C 112.792 44.155,123.853 53.361,130.697 47.092 C 131.860 46.026,131.822 46.014,131.925 47.492 L 132.005 48.645 134.906 48.718 L 137.806 48.791 137.806 32.267 L 137.806 15.742 134.710 15.742 L 131.613 15.742 131.613 21.935 M245.226 16.192 C 244.087 16.759,243.236 18.512,243.477 19.797 C 244.118 23.215,248.958 23.530,250.216 20.236 C 251.282 17.444,248.021 14.801,245.226 16.192 M87.097 16.342 C 77.103 18.418,74.284 29.927,82.740 34.131 C 84.080 34.798,85.751 35.376,89.977 36.638 C 92.893 37.508,93.935 38.334,93.935 39.775 C 93.935 43.852,87.489 44.440,83.073 40.766 L 81.887 39.779 79.777 41.901 L 77.666 44.022 78.382 44.675 C 86.857 52.415,100.248 49.395,100.256 39.742 C 100.260 35.091,97.470 32.483,90.323 30.456 C 85.734 29.155,84.645 28.325,84.645 26.127 C 84.645 22.378,90.205 20.929,94.221 23.632 C 95.939 24.788,95.865 24.812,97.794 22.476 C 99.925 19.896,99.910 20.089,98.083 18.743 C 95.230 16.644,90.560 15.623,87.097 16.342 M168.000 32.635 L 168.000 48.791 170.903 48.718 L 173.806 48.645 173.935 43.613 L 174.065 38.581 178.194 38.426 C 183.574 38.224,185.149 37.671,187.301 35.226 C 192.495 29.325,190.211 19.453,183.108 17.107 C 182.061 16.761,180.456 16.657,174.903 16.578 L 168.000 16.479 168.000 32.635 M309.677 22.839 C 309.677 24.811,309.590 25.560,309.355 25.593 C 308.932 25.651,307.665 25.742,306.774 25.778 L 306.065 25.806 306.065 28.516 L 306.065 31.226 307.714 31.226 C 309.798 31.226,309.677 30.838,309.677 37.560 C 309.677 42.437,309.737 43.237,310.191 44.450 C 311.532 48.034,315.692 49.918,320.630 49.177 L 321.806 49.001 321.806 46.178 L 321.806 43.355 319.627 43.355 C 317.732 43.355,317.364 43.279,316.799 42.774 L 316.150 42.194 316.089 36.774 L 316.028 31.355 318.853 31.226 L 321.677 31.097 321.677 28.387 L 321.677 25.677 318.903 25.604 L 316.129 25.531 316.129 22.830 L 316.129 20.129 312.903 20.129 L 309.677 20.129 309.677 22.839 M181.656 23.597 C 183.081 24.586,183.742 25.899,183.742 27.742 C 183.742 31.262,181.718 32.770,176.989 32.773 C 173.665 32.775,173.935 33.236,173.935 27.565 L 173.935 22.669 177.249 22.754 C 180.430 22.835,180.606 22.869,181.656 23.597 M205.806 25.651 C 203.443 26.414,202.020 27.163,200.739 28.321 L 199.694 29.265 199.782 27.600 L 199.871 25.935 196.774 25.935 L 193.677 25.935 193.610 37.132 C 193.571 43.695,193.641 48.447,193.781 48.615 C 193.937 48.804,194.962 48.875,196.751 48.822 L 199.484 48.741 199.484 44.289 C 199.484 35.849,201.319 32.755,206.695 32.131 L 208.258 31.949 208.258 28.749 C 208.258 26.989,208.264 25.461,208.272 25.355 C 208.298 24.987,207.607 25.070,205.806 25.651 M149.677 25.921 C 141.026 28.351,138.354 39.137,144.777 45.701 C 148.985 50.002,156.774 50.238,161.368 46.204 C 162.645 45.083,162.608 44.951,160.500 43.082 L 158.677 41.466 157.725 42.038 C 154.048 44.250,151.457 44.128,148.949 41.625 C 146.703 39.383,146.739 39.364,153.552 39.300 C 156.743 39.269,160.429 39.171,161.742 39.082 L 164.129 38.920 164.129 37.449 C 164.129 29.706,156.857 23.904,149.677 25.921 M218.526 26.161 C 207.551 29.831,207.633 45.074,218.646 48.566 C 224.540 50.434,230.557 47.697,233.188 41.949 C 237.271 33.031,227.960 23.005,218.526 26.161 M263.432 26.047 C 251.200 29.958,253.686 48.428,266.520 48.990 C 270.320 49.156,272.716 48.435,275.652 46.243 C 277.227 45.068,277.219 44.974,275.419 43.457 C 274.603 42.769,273.843 42.058,273.729 41.877 C 273.414 41.376,272.904 41.477,271.606 42.301 C 268.377 44.348,264.444 43.802,262.625 41.053 C 262.246 40.480,261.935 39.905,261.935 39.776 C 261.935 39.568,267.041 39.339,275.742 39.156 L 278.581 39.097 278.663 38.092 C 279.314 30.151,271.046 23.612,263.432 26.047 M290.523 25.930 C 283.729 27.800,280.125 35.752,283.168 42.160 C 286.525 49.227,294.675 51.205,301.304 46.560 C 303.912 44.733,303.903 44.871,301.540 42.691 C 299.214 40.546,299.161 40.525,298.303 41.444 C 294.248 45.788,287.010 41.802,288.272 35.920 C 289.283 31.205,295.114 29.488,298.364 32.947 C 299.147 33.781,299.254 33.746,301.290 31.983 C 303.443 30.120,303.405 30.348,301.806 28.875 C 298.528 25.851,294.566 24.817,290.523 25.930 M105.484 25.987 L 104.774 26.099 104.774 37.420 L 104.774 48.741 107.548 48.822 C 109.074 48.867,110.411 48.838,110.519 48.759 C 110.627 48.679,110.685 43.511,110.648 37.275 L 110.581 25.935 108.387 25.905 C 107.181 25.888,105.874 25.925,105.484 25.987 M244.710 25.973 C 244.459 26.077,244.387 28.382,244.387 36.263 C 244.387 42.810,244.290 46.676,244.113 47.144 C 243.172 49.634,240.308 50.686,237.354 49.628 C 235.874 49.097,235.927 49.049,234.736 52.000 C 233.655 54.678,233.636 54.629,236.105 55.413 C 241.351 57.078,247.088 55.175,249.169 51.078 C 250.513 48.433,250.592 47.572,250.519 36.338 L 250.452 25.935 247.742 25.887 C 246.252 25.860,244.887 25.899,244.710 25.973 M153.814 30.993 C 155.688 31.395,158.088 33.708,157.544 34.588 C 157.296 34.989,147.611 34.918,147.621 34.516 C 147.643 33.706,149.110 32.092,150.435 31.419 C 152.029 30.611,152.030 30.611,153.814 30.993 M269.151 31.179 C 270.386 31.652,272.000 33.445,272.000 34.343 C 272.000 34.815,271.760 34.839,266.968 34.839 C 261.645 34.839,261.652 34.840,262.300 33.600 C 263.563 31.183,266.475 30.153,269.151 31.179 M128.258 31.625 C 129.250 32.134,130.495 33.554,131.077 34.839 C 134.050 41.415,124.804 46.542,121.638 40.072 C 119.222 35.134,123.773 29.327,128.258 31.625 M224.536 31.627 C 228.875 33.846,228.972 40.570,224.694 42.701 C 219.607 45.237,214.408 39.543,217.045 34.323 C 218.413 31.614,221.992 30.326,224.536 31.627 M154.129 63.161 L 149.161 63.237 149.161 64.511 L 149.161 65.786 151.290 65.861 L 153.419 65.935 153.489 71.935 L 153.558 77.935 154.968 77.935 L 156.378 77.935 156.447 71.935 L 156.516 65.935 158.452 65.806 L 160.387 65.677 160.468 64.542 C 160.552 63.378,160.254 62.921,159.484 63.030 C 159.271 63.060,156.861 63.119,154.129 63.161 M169.727 63.150 C 169.557 63.430,166.893 70.275,166.334 71.871 C 166.085 72.581,165.777 73.394,165.650 73.677 C 165.230 74.619,164.387 77.236,164.387 77.601 C 164.387 77.877,164.755 77.942,165.980 77.883 L 167.573 77.806 167.972 76.452 L 168.371 75.097 171.522 75.097 L 174.673 75.097 175.086 76.516 L 175.498 77.935 177.168 77.935 C 179.342 77.935,179.577 79.103,175.192 68.129 L 173.182 63.097 171.516 63.021 C 170.600 62.979,169.795 63.037,169.727 63.150 M184.958 63.128 C 184.857 63.229,184.774 66.602,184.774 70.624 L 184.774 77.935 186.327 77.935 L 187.879 77.935 187.810 70.516 L 187.742 63.097 186.442 63.021 C 185.727 62.979,185.059 63.027,184.958 63.128 M223.260 63.537 C 219.251 74.330,218.631 76.071,218.425 77.099 L 218.258 77.935 219.801 77.935 L 221.345 77.935 221.707 76.581 L 222.068 75.226 225.321 75.154 L 228.574 75.082 228.906 76.315 C 229.351 77.970,229.437 78.034,231.148 77.964 C 232.976 77.890,232.895 78.000,232.243 76.488 C 231.943 75.794,230.944 73.194,230.023 70.710 C 229.101 68.226,228.079 65.497,227.750 64.645 L 227.153 63.097 225.316 63.021 C 223.604 62.950,223.465 62.985,223.260 63.537 M238.882 63.140 C 238.787 63.234,238.710 66.608,238.710 70.637 L 238.710 77.961 240.194 77.884 L 241.677 77.806 241.806 73.169 L 241.935 68.531 242.839 69.814 C 243.337 70.519,244.555 72.297,245.548 73.763 C 248.289 77.813,248.393 77.911,250.065 77.994 L 251.484 78.065 251.613 70.749 C 251.760 62.390,251.867 62.913,250.040 63.017 L 248.645 63.097 248.516 67.720 L 248.387 72.343 246.298 69.526 C 245.149 67.977,243.707 65.955,243.092 65.032 C 242.477 64.110,241.849 63.270,241.697 63.165 C 241.349 62.928,239.114 62.908,238.882 63.140 M193.548 63.508 C 193.548 63.677,194.064 65.628,194.695 67.843 C 195.974 72.340,197.018 76.148,197.269 77.237 C 197.433 77.949,197.458 77.958,199.165 77.883 L 200.895 77.806 201.575 75.226 C 201.950 73.806,202.457 71.716,202.703 70.581 C 202.949 69.445,203.192 68.371,203.244 68.194 C 203.492 67.347,203.834 68.163,204.650 71.548 C 205.138 73.571,205.725 75.806,205.955 76.516 L 206.374 77.806 208.025 77.881 L 209.677 77.955 210.811 73.752 C 213.972 62.036,213.836 63.226,212.015 63.226 C 210.294 63.226,210.494 62.878,209.157 68.206 C 207.860 73.373,207.750 73.501,207.142 70.547 C 206.889 69.321,206.372 67.171,205.992 65.771 L 205.301 63.226 203.592 63.226 L 201.883 63.226 201.424 64.968 C 199.644 71.732,199.126 73.140,198.850 71.973 C 198.770 71.633,198.261 69.555,197.719 67.355 L 196.733 63.355 195.141 63.278 C 194.039 63.225,193.548 63.296,193.548 63.508 M226.403 68.774 C 226.900 70.194,227.388 71.558,227.487 71.806 C 227.651 72.216,227.459 72.258,225.447 72.258 C 224.079 72.258,223.226 72.155,223.226 71.989 C 223.226 71.683,224.950 66.664,225.187 66.281 C 225.406 65.926,225.404 65.920,226.403 68.774 M172.426 68.907 C 173.735 72.539,173.825 72.258,171.357 72.258 C 169.770 72.258,169.264 72.177,169.350 71.935 C 169.413 71.758,169.852 70.478,170.325 69.090 C 171.347 66.094,171.411 66.088,172.426 68.907 " stroke="none" fill="#000000" fill-rule="evenodd"></path></g></svg>