<svg width="14" height="14" viewBox="0 0 14 14" fill="none" xmlns="http://www.w3.org/2000/svg">
<path d="M1.5481 13.5833C1.17299 13.5833 0.855929 13.4538 0.596916 13.1948C0.337888 12.9357 0.208374 12.6187 0.208374 12.2436V1.75644C0.208374 1.38133 0.337888 1.06426 0.596916 0.805229C0.855929 0.546201 1.17299 0.416687 1.5481 0.416687H7.64133C7.78619 0.416687 7.91157 0.468208 8.01746 0.57125C8.12336 0.674277 8.17631 0.801945 8.17631 0.95425C8.17631 1.10656 8.1244 1.23559 8.02058 1.34135C7.91678 1.44712 7.78814 1.5 7.63467 1.5H1.5481C1.48399 1.5 1.42523 1.52671 1.37181 1.58013C1.31838 1.63356 1.29167 1.69233 1.29167 1.75644V12.2436C1.29167 12.3077 1.31838 12.3664 1.37181 12.4199C1.42523 12.4733 1.48399 12.5 1.5481 12.5H12.0352C12.0993 12.5 12.1581 12.4733 12.2115 12.4199C12.265 12.3664 12.2917 12.3077 12.2917 12.2436V6.15033C12.2917 6.00549 12.3432 5.88011 12.4462 5.77421C12.5492 5.66831 12.6769 5.61535 12.8292 5.61535C12.9815 5.61535 13.1106 5.66726 13.2163 5.77108C13.3221 5.8749 13.375 6.00354 13.375 6.157V12.2436C13.375 12.6187 13.2455 12.9357 12.9864 13.1948C12.7274 13.4538 12.4103 13.5833 12.0352 13.5833H1.5481ZM4.54756 10.7916C4.39434 10.7916 4.26478 10.7401 4.15887 10.6371C4.05297 10.5341 4.00002 10.4064 4.00002 10.2541C4.00002 10.1018 4.05185 9.97276 4.1555 9.867C4.25915 9.76124 4.3876 9.70835 4.54083 9.70835H9.03577C9.18901 9.70835 9.31858 9.75987 9.42448 9.8629C9.53038 9.96592 9.58333 10.0936 9.58333 10.2459C9.58333 10.3982 9.5315 10.5272 9.42783 10.633C9.32418 10.7388 9.19574 10.7916 9.04252 10.7916H4.54756ZM4.54756 8.54165C4.39434 8.54165 4.26478 8.49013 4.15887 8.3871C4.05297 8.28408 4.00002 8.15641 4.00002 8.0041C4.00002 7.8518 4.05185 7.72276 4.1555 7.617C4.25915 7.51124 4.3876 7.45835 4.54083 7.45835H9.03577C9.18901 7.45835 9.31858 7.50987 9.42448 7.6129C9.53038 7.71592 9.58333 7.84359 9.58333 7.9959C9.58333 8.1482 9.5315 8.27724 9.42783 8.383C9.32418 8.48876 9.19574 8.54165 9.04252 8.54165H4.54756ZM4.54756 6.29165C4.39434 6.29165 4.26478 6.24013 4.15887 6.1371C4.05297 6.03408 4.00002 5.90641 4.00002 5.7541C4.00002 5.6018 4.05185 5.47276 4.1555 5.367C4.25915 5.26124 4.3876 5.20835 4.54083 5.20835H9.03577C9.18901 5.20835 9.31858 5.25987 9.42448 5.3629C9.53038 5.46592 9.58333 5.59359 9.58333 5.7459C9.58333 5.8982 9.5315 6.02724 9.42783 6.133C9.32418 6.23876 9.19574 6.29165 9.04252 6.29165H4.54756ZM11.7541 4.08331C11.6018 4.08331 11.4736 4.0314 11.3694 3.92758C11.2653 3.82376 11.2132 3.69512 11.2132 3.54165V2.58331H10.2525C10.0983 2.58331 9.96907 2.53138 9.86479 2.4275C9.76051 2.32363 9.70837 2.19492 9.70837 2.04138C9.70837 1.88782 9.76051 1.7592 9.86479 1.65552C9.96907 1.55184 10.0983 1.5 10.2525 1.5H11.2132V0.541646C11.2132 0.388188 11.2654 0.259548 11.3697 0.155729C11.4741 0.0519092 11.6024 0 11.7547 0C11.907 0 12.0346 0.0519092 12.1374 0.155729C12.2402 0.259548 12.2917 0.388188 12.2917 0.541646V1.5H13.2456C13.3979 1.5 13.5269 1.55151 13.6328 1.65454C13.7387 1.75757 13.7917 1.88524 13.7917 2.03754C13.7917 2.18985 13.7398 2.31784 13.6359 2.42152C13.5321 2.52521 13.4035 2.57706 13.25 2.57706H12.2917V3.5354C12.2917 3.68887 12.2402 3.81856 12.1371 3.92446C12.0341 4.03036 11.9064 4.08331 11.7541 4.08331Z" fill="#2563EB"/>
</svg>
