<svg width="20" height="20" viewBox="0 0 20 20" fill="none" xmlns="http://www.w3.org/2000/svg">
<mask id="mask0_20_812" style="mask-type:alpha" maskUnits="userSpaceOnUse" x="0" y="0" width="20" height="20">
<rect width="20" height="20" fill="#D9D9D9"/>
</mask>
<g mask="url(#mask0_20_812)">
<path d="M8.01674 12.6795C6.71818 12.6795 5.61351 12.2241 4.70274 11.3133C3.79194 10.4025 3.33655 9.29807 3.33655 8C3.33655 6.70193 3.79194 5.5975 4.70274 4.68671C5.61351 3.77593 6.71794 3.32054 8.01601 3.32054C9.31408 3.32054 10.4185 3.77593 11.3293 4.68671C12.2401 5.5975 12.6955 6.70217 12.6955 8.00073C12.6955 8.54555 12.606 9.06651 12.427 9.56362C12.2481 10.0607 12.0058 10.5096 11.7003 10.9102L16.2868 15.4968C16.4022 15.6122 16.4612 15.7364 16.4639 15.8694C16.4666 16.0024 16.4076 16.1293 16.2868 16.25C16.1661 16.3707 16.0371 16.4311 15.8998 16.4311C15.7625 16.4311 15.6335 16.3707 15.5128 16.25L10.9263 11.6843C10.5096 12.0005 10.0527 12.2454 9.55559 12.419C9.05848 12.5927 8.54553 12.6795 8.01674 12.6795ZM8.01601 11.5962C9.02028 11.5962 9.87071 11.2479 10.5673 10.5513C11.2639 9.85471 11.6122 9.00428 11.6122 8C11.6122 6.99572 11.2639 6.14529 10.5673 5.44871C9.87071 4.75213 9.02028 4.40383 8.01601 4.40383C7.01173 4.40383 6.1613 4.75213 5.46471 5.44871C4.76815 6.14529 4.41986 6.99572 4.41986 8C4.41986 9.00428 4.76815 9.85471 5.46471 10.5513C6.1613 11.2479 7.01173 11.5962 8.01601 11.5962Z" fill="#A1A1AA"/>
</g>
</svg>
