<svg width="83" height="30" viewBox="0 0 83 30" fill="none" xmlns="http://www.w3.org/2000/svg">
<path d="M4.72676 12.2529C3.9429 12.2529 3.26159 12.1344 2.68281 11.8975C2.10404 11.6605 1.64831 11.3278 1.31562 10.8994C0.987499 10.4665 0.802929 9.95833 0.761913 9.375L0.755077 9.26562H2.74434L2.75117 9.33398C2.77851 9.58008 2.87878 9.79655 3.05195 9.9834C3.22969 10.1657 3.46667 10.3092 3.76289 10.4141C4.05911 10.5189 4.39863 10.5713 4.78144 10.5713C5.15059 10.5713 5.47415 10.5166 5.75215 10.4072C6.03014 10.2979 6.24661 10.1475 6.40156 9.95605C6.56107 9.76009 6.64082 9.53678 6.64082 9.28613V9.2793C6.64082 8.95573 6.50866 8.69596 6.24434 8.5C5.98457 8.30404 5.54707 8.14225 4.93184 8.01465L3.89277 7.80273C2.86738 7.5931 2.12226 7.24902 1.65742 6.77051C1.19258 6.29199 0.960155 5.67904 0.960155 4.93164V4.9248C0.960155 4.31413 1.12194 3.78092 1.44551 3.3252C1.76907 2.86947 2.21341 2.51628 2.77851 2.26562C3.34362 2.01042 3.99075 1.88281 4.71992 1.88281C5.48555 1.88281 6.1418 2.00814 6.68867 2.25879C7.2401 2.50488 7.67077 2.8444 7.98066 3.27734C8.29056 3.70573 8.46601 4.19564 8.50703 4.74707L8.51387 4.83594H6.57246L6.55879 4.75391C6.51777 4.51693 6.41751 4.30957 6.25801 4.13184C6.10306 3.9541 5.89342 3.8151 5.6291 3.71484C5.36934 3.61003 5.06628 3.55762 4.71992 3.55762C4.38268 3.55762 4.08646 3.60775 3.83125 3.70801C3.57604 3.80827 3.3778 3.94954 3.23652 4.13184C3.09525 4.30957 3.02461 4.52148 3.02461 4.76758V4.77441C3.02461 5.09342 3.15221 5.35547 3.40742 5.56055C3.66719 5.76107 4.08646 5.92057 4.66523 6.03906L5.71113 6.25098C6.4084 6.39225 6.97578 6.58366 7.41328 6.8252C7.85534 7.06673 8.18118 7.36979 8.39082 7.73438C8.60045 8.09896 8.70527 8.53874 8.70527 9.05371V9.06055C8.70527 9.71224 8.54349 10.2773 8.21992 10.7559C7.90091 11.2298 7.4429 11.599 6.8459 11.8633C6.25345 12.123 5.54707 12.2529 4.72676 12.2529ZM10.6158 12V4.47363H12.6119V12H10.6158ZM11.6207 3.31836C11.3153 3.31836 11.051 3.21126 10.8277 2.99707C10.6044 2.77832 10.4927 2.51628 10.4927 2.21094C10.4927 1.90104 10.6044 1.639 10.8277 1.4248C11.051 1.20605 11.3153 1.09668 11.6207 1.09668C11.9306 1.09668 12.1949 1.20605 12.4136 1.4248C12.6324 1.639 12.7418 1.90104 12.7418 2.21094C12.7418 2.51628 12.6324 2.77832 12.4136 2.99707C12.1949 3.21126 11.9306 3.31836 11.6207 3.31836ZM17.4482 12.1162C16.8238 12.1162 16.2815 11.9613 15.8212 11.6514C15.3655 11.3369 15.0123 10.8903 14.7616 10.3115C14.5155 9.73275 14.3925 9.04232 14.3925 8.24023V8.22656C14.3925 7.41992 14.5133 6.72721 14.7548 6.14844C15.0009 5.56966 15.3518 5.12533 15.8075 4.81543C16.2633 4.50553 16.8101 4.35059 17.4482 4.35059C17.79 4.35059 18.1067 4.40527 18.3984 4.51465C18.6946 4.61947 18.9543 4.76986 19.1777 4.96582C19.401 5.16178 19.5741 5.39876 19.6972 5.67676H19.8202V1.5957H21.8163V12H19.8202V10.8311H19.6972C19.5696 11.0999 19.3964 11.3301 19.1777 11.5215C18.9635 11.7129 18.7105 11.861 18.4189 11.9658C18.1272 12.0661 17.8036 12.1162 17.4482 12.1162ZM18.1249 10.4619C18.4804 10.4619 18.7857 10.373 19.0409 10.1953C19.2961 10.0176 19.4921 9.76237 19.6288 9.42969C19.7701 9.09701 19.8407 8.7028 19.8407 8.24707V8.2334C19.8407 7.76855 19.7701 7.37207 19.6288 7.04395C19.4921 6.71126 19.2939 6.45605 19.0341 6.27832C18.7789 6.09603 18.4758 6.00488 18.1249 6.00488C17.7786 6.00488 17.4755 6.09603 17.2157 6.27832C16.9605 6.45605 16.7646 6.71126 16.6279 7.04395C16.4911 7.37207 16.4228 7.76628 16.4228 8.22656V8.24023C16.4228 8.70052 16.4911 9.09701 16.6279 9.42969C16.7646 9.76237 16.9605 10.0176 17.2157 10.1953C17.4709 10.373 17.774 10.4619 18.1249 10.4619ZM27.3294 12.1572C26.5683 12.1572 25.9121 12 25.3606 11.6855C24.8137 11.3665 24.3922 10.9154 24.096 10.332C23.7998 9.7487 23.6516 9.05371 23.6516 8.24707V8.24023C23.6516 7.44271 23.7975 6.75 24.0891 6.16211C24.3854 5.57422 24.8024 5.11849 25.3401 4.79492C25.8824 4.47135 26.5182 4.30957 27.2473 4.30957C27.9811 4.30957 28.6145 4.4668 29.1477 4.78125C29.6809 5.0957 30.0911 5.53548 30.3782 6.10059C30.6653 6.66569 30.8089 7.32878 30.8089 8.08984V8.71191H24.6497V7.46094H29.8518L28.9153 8.64355V7.84375C28.9153 7.39258 28.8447 7.0166 28.7034 6.71582C28.5667 6.41504 28.3753 6.18945 28.1292 6.03906C27.8876 5.88411 27.6051 5.80664 27.2815 5.80664C26.9625 5.80664 26.6777 5.88639 26.427 6.0459C26.1809 6.20085 25.985 6.43099 25.8391 6.73633C25.6979 7.03711 25.6272 7.40625 25.6272 7.84375V8.65039C25.6272 9.07422 25.6979 9.43652 25.8391 9.7373C25.9804 10.0381 26.1809 10.2682 26.4407 10.4277C26.7005 10.5872 27.0104 10.667 27.3704 10.667C27.6621 10.667 27.9104 10.6237 28.1155 10.5371C28.3206 10.4505 28.4846 10.3503 28.6077 10.2363C28.7353 10.1178 28.8219 10.0107 28.8675 9.91504L28.888 9.87402H30.7473L30.7337 9.94238C30.6744 10.1794 30.5673 10.4277 30.4124 10.6875C30.2574 10.9427 30.0432 11.182 29.7698 11.4053C29.5009 11.6286 29.1637 11.8109 28.7581 11.9521C28.357 12.0889 27.8808 12.1572 27.3294 12.1572ZM33.8131 8.88965V7.27637H36.3424C36.9349 7.27637 37.3952 7.12598 37.7233 6.8252C38.056 6.51986 38.2223 6.08691 38.2223 5.52637V5.5127C38.2223 4.95215 38.056 4.52148 37.7233 4.2207C37.3952 3.91992 36.9349 3.76953 36.3424 3.76953H33.8131V2.13574H36.8483C37.541 2.13574 38.1471 2.27702 38.6666 2.55957C39.1862 2.83757 39.5895 3.22949 39.8766 3.73535C40.1683 4.24121 40.3141 4.83138 40.3141 5.50586V5.51953C40.3141 6.19857 40.1683 6.79102 39.8766 7.29688C39.5895 7.80273 39.1862 8.19466 38.6666 8.47266C38.1471 8.75065 37.541 8.88965 36.8483 8.88965H33.8131ZM32.7809 12V2.13574H34.8454V12H32.7809ZM42.1562 12V4.47363H44.1523V5.64258H44.2754C44.3984 5.23242 44.624 4.91569 44.9521 4.69238C45.2803 4.46452 45.6882 4.35059 46.1758 4.35059C46.3125 4.35059 46.4447 4.3597 46.5723 4.37793C46.7044 4.39616 46.8206 4.41895 46.9209 4.44629V6.18945C46.7705 6.15299 46.6178 6.12565 46.4629 6.10742C46.3125 6.08464 46.1598 6.07324 46.0049 6.07324C45.6266 6.07324 45.2985 6.14388 45.0205 6.28516C44.7425 6.42188 44.5283 6.61784 44.3779 6.87305C44.2275 7.12826 44.1523 7.43359 44.1523 7.78906V12H42.1562ZM51.5726 12.1572C50.8024 12.1572 50.1393 12.0023 49.5834 11.6924C49.0274 11.3779 48.6013 10.929 48.305 10.3457C48.0088 9.75781 47.8607 9.05599 47.8607 8.24023V8.22656C47.8607 7.41536 48.0111 6.7181 48.3119 6.13477C48.6127 5.55143 49.0388 5.10254 49.5902 4.78809C50.1462 4.46908 50.807 4.30957 51.5726 4.30957C52.3382 4.30957 52.9968 4.4668 53.5482 4.78125C54.1042 5.0957 54.5326 5.54688 54.8334 6.13477C55.1341 6.7181 55.2845 7.41536 55.2845 8.22656V8.24023C55.2845 9.05599 55.1364 9.75781 54.8402 10.3457C54.544 10.929 54.1179 11.3779 53.5619 11.6924C53.0104 12.0023 52.3474 12.1572 51.5726 12.1572ZM51.5726 10.5918C51.9281 10.5918 52.2289 10.4984 52.475 10.3115C52.7211 10.1247 52.9102 9.85579 53.0423 9.50488C53.1745 9.15397 53.2406 8.73242 53.2406 8.24023V8.22656C53.2406 7.73438 53.1745 7.3151 53.0423 6.96875C52.9102 6.61784 52.7188 6.34896 52.4681 6.16211C52.222 5.9707 51.9235 5.875 51.5726 5.875C51.2217 5.875 50.9209 5.9707 50.6703 6.16211C50.4242 6.34896 50.2351 6.61784 50.1029 6.96875C49.9707 7.3151 49.9046 7.73438 49.9046 8.22656V8.24023C49.9046 8.73698 49.9684 9.16081 50.0961 9.51172C50.2282 9.86263 50.4173 10.1315 50.6634 10.3184C50.9141 10.5007 51.2171 10.5918 51.5726 10.5918ZM56.3884 14.5635C56.3018 14.5635 56.2061 14.5612 56.1013 14.5566C55.9965 14.5521 55.9144 14.5475 55.8552 14.543V13.0391C55.8917 13.0391 55.9327 13.0391 55.9782 13.0391C56.0193 13.0436 56.0626 13.0459 56.1081 13.0459C56.4499 13.0459 56.6937 12.9798 56.8396 12.8477C56.99 12.7201 57.0652 12.5013 57.0652 12.1914V4.47363H59.0612V12.2461C59.0612 13.0117 58.8334 13.5882 58.3777 13.9756C57.9265 14.3675 57.2634 14.5635 56.3884 14.5635ZM58.0632 3.31836C57.7579 3.31836 57.4935 3.21126 57.2702 2.99707C57.0469 2.77832 56.9353 2.51628 56.9353 2.21094C56.9353 1.90104 57.0469 1.639 57.2702 1.4248C57.4935 1.20605 57.7579 1.09668 58.0632 1.09668C58.3731 1.09668 58.6374 1.20605 58.8562 1.4248C59.0749 1.639 59.1843 1.90104 59.1843 2.21094C59.1843 2.51628 59.0749 2.77832 58.8562 2.99707C58.6374 3.21126 58.3731 3.31836 58.0632 3.31836ZM64.5196 12.1572C63.7585 12.1572 63.1023 12 62.5509 11.6855C62.004 11.3665 61.5824 10.9154 61.2862 10.332C60.99 9.7487 60.8419 9.05371 60.8419 8.24707V8.24023C60.8419 7.44271 60.9877 6.75 61.2794 6.16211C61.5756 5.57422 61.9926 5.11849 62.5303 4.79492C63.0727 4.47135 63.7084 4.30957 64.4376 4.30957C65.1713 4.30957 65.8048 4.4668 66.338 4.78125C66.8712 5.0957 67.2813 5.53548 67.5684 6.10059C67.8555 6.66569 67.9991 7.32878 67.9991 8.08984V8.71191H61.8399V7.46094H67.0421L66.1055 8.64355V7.84375C66.1055 7.39258 66.0349 7.0166 65.8936 6.71582C65.7569 6.41504 65.5655 6.18945 65.3194 6.03906C65.0779 5.88411 64.7953 5.80664 64.4718 5.80664C64.1527 5.80664 63.8679 5.88639 63.6173 6.0459C63.3712 6.20085 63.1752 6.43099 63.0294 6.73633C62.8881 7.03711 62.8175 7.40625 62.8175 7.84375V8.65039C62.8175 9.07422 62.8881 9.43652 63.0294 9.7373C63.1706 10.0381 63.3712 10.2682 63.6309 10.4277C63.8907 10.5872 64.2006 10.667 64.5606 10.667C64.8523 10.667 65.1007 10.6237 65.3057 10.5371C65.5108 10.4505 65.6749 10.3503 65.7979 10.2363C65.9255 10.1178 66.0121 10.0107 66.0577 9.91504L66.0782 9.87402H67.9376L67.9239 9.94238C67.8647 10.1794 67.7576 10.4277 67.6026 10.6875C67.4477 10.9427 67.2335 11.182 66.96 11.4053C66.6912 11.6286 66.3539 11.8109 65.9483 11.9521C65.5473 12.0889 65.071 12.1572 64.5196 12.1572ZM73.0883 12.1572C72.3045 12.1572 71.6368 12.0046 71.0854 11.6992C70.5385 11.3893 70.1215 10.9427 69.8344 10.3594C69.5473 9.77148 69.4037 9.06055 69.4037 8.22656V8.21289C69.4037 7.38346 69.5473 6.67936 69.8344 6.10059C70.1215 5.52181 70.5385 5.07975 71.0854 4.77441C71.6368 4.46452 72.3045 4.30957 73.0883 4.30957C73.7537 4.30957 74.3256 4.4235 74.8041 4.65137C75.2827 4.87923 75.6609 5.20052 75.9389 5.61523C76.2169 6.02995 76.3855 6.51758 76.4448 7.07812V7.09863H74.5922L74.5854 7.08496C74.517 6.72038 74.3575 6.42871 74.1069 6.20996C73.8608 5.98665 73.5235 5.875 73.0952 5.875C72.7397 5.875 72.4366 5.96615 72.186 6.14844C71.9399 6.32617 71.753 6.58822 71.6254 6.93457C71.4978 7.28092 71.434 7.70703 71.434 8.21289V8.22656C71.434 8.73242 71.4978 9.16309 71.6254 9.51855C71.7576 9.86947 71.9467 10.1361 72.1928 10.3184C72.4389 10.5007 72.7397 10.5918 73.0952 10.5918C73.5053 10.5918 73.8334 10.4961 74.0795 10.3047C74.3256 10.1133 74.492 9.82617 74.5786 9.44336L74.5922 9.42285L76.4379 9.41602V9.46387C76.365 10.0062 76.1896 10.4801 75.9116 10.8857C75.6336 11.2913 75.2576 11.6058 74.7836 11.8291C74.3097 12.0479 73.7446 12.1572 73.0883 12.1572ZM81.3357 12.0273C80.4243 12.0273 79.768 11.8678 79.367 11.5488C78.9659 11.2253 78.7654 10.6989 78.7654 9.96973V5.97754H77.6033V4.47363H78.7654V2.67578H80.782V4.47363H82.3338V5.97754H80.782V9.51172C80.782 9.84896 80.8572 10.0973 81.0076 10.2568C81.1626 10.4118 81.4087 10.4893 81.7459 10.4893C81.8735 10.4893 81.9783 10.487 82.0603 10.4824C82.1469 10.4733 82.2381 10.4642 82.3338 10.4551V11.9385C82.2107 11.9613 82.0626 11.9818 81.8895 12C81.7163 12.0182 81.5317 12.0273 81.3357 12.0273Z" fill="#2563EB"/>
<path d="M22.9209 27V21.0137H20.7529V19.9541H26.3486V21.0137H24.1807V27H22.9209ZM26.8682 27L29.3682 19.9541H30.4131V21.2627H30.0371L28.1865 27H26.8682ZM28.1279 25.1787L28.4551 24.207H31.6875L32.0146 25.1787H28.1279ZM31.9707 27L30.1201 21.2627V19.9541H30.7842L33.2891 27H31.9707ZM35 27V19.9541H36.2598V27H35ZM39.9482 27L38.0586 19.9541H39.3672L40.5781 25.2422H40.6465L42.0381 19.9541H43.1562L44.5625 25.2422H44.6309L45.8369 19.9541H47.1357L45.251 27H44.0693L42.6338 21.9561H42.5605L41.1348 27H39.9482ZM47.8506 27L50.3506 19.9541H51.3955V21.2627H51.0195L49.1689 27H47.8506ZM49.1104 25.1787L49.4375 24.207H52.6699L52.9971 25.1787H49.1104ZM52.9531 27L51.1025 21.2627V19.9541H51.7666L54.2715 27H52.9531ZM55.9824 27V19.9541H57.0762L60.8555 25.252L59.9863 24.8076H60.6162V19.9541H61.8271V27H60.7383L56.959 21.6973L57.8281 22.1416H57.1982V27H55.9824Z" fill="#2563EB"/>
</svg>
