<svg width="16" height="12" viewBox="0 0 16 12" fill="none" xmlns="http://www.w3.org/2000/svg">
<g clip-path="url(#clip0_7_408)">
<path d="M13.0166 1.21311C12.0197 0.756697 10.9673 0.432904 9.88625 0.25C9.73832 0.514453 9.60447 0.786539 9.48526 1.06512C8.33372 0.891596 7.16269 0.891596 6.01115 1.06512C5.89188 0.786568 5.75803 0.514484 5.61015 0.25C4.5284 0.434449 3.47528 0.75901 2.47737 1.21549C0.496258 4.14659 -0.0407903 7.00488 0.227734 9.82259C1.38792 10.6798 2.68651 11.3317 4.06703 11.75C4.37789 11.3319 4.65296 10.8884 4.88932 10.4241C4.44038 10.2564 4.00708 10.0495 3.59443 9.80588C3.70303 9.72712 3.80925 9.64596 3.91189 9.5672C5.11261 10.1319 6.42313 10.4246 7.74999 10.4246C9.07686 10.4246 10.3874 10.1319 11.5881 9.5672C11.6919 9.65193 11.7981 9.73308 11.9056 9.80588C11.4921 10.0499 11.058 10.2572 10.6083 10.4253C10.8444 10.8894 11.1194 11.3325 11.4306 11.75C12.8123 11.3334 14.1119 10.6818 15.2723 9.82379C15.5873 6.55614 14.734 3.72411 13.0166 1.21311ZM5.22945 8.08972C4.48116 8.08972 3.86296 7.41065 3.86296 6.57524C3.86296 5.73983 4.45968 5.05479 5.22706 5.05479C5.99444 5.05479 6.60787 5.73983 6.59474 6.57524C6.58161 7.41065 5.99206 8.08972 5.22945 8.08972ZM10.2705 8.08972C9.52106 8.08972 8.90524 7.41065 8.90524 6.57524C8.90524 5.73983 9.50197 5.05479 10.2705 5.05479C11.0391 5.05479 11.6478 5.73983 11.6346 6.57524C11.6215 7.41065 11.0332 8.08972 10.2705 8.08972Z" fill="#2563EB"/>
</g>
<defs>
<clipPath id="clip0_7_408">
<rect width="15.1734" height="11.5" fill="white" transform="translate(0.1633 0.25)"/>
</clipPath>
</defs>
</svg>
