<svg width="16" height="16" viewBox="0 0 16 16" fill="none" xmlns="http://www.w3.org/2000/svg">
<path d="M8.25031 0.570801C4.04396 0.570801 0.632874 3.98066 0.632874 8.18763C0.632874 11.5534 2.81558 14.4085 5.84188 15.4154C6.22238 15.4857 6.36247 15.2502 6.36247 15.049C6.36247 14.8673 6.35513 14.2671 6.35207 13.6309C4.23299 14.0916 3.7858 12.7323 3.7858 12.7323C3.43956 11.852 2.93976 11.6177 2.93976 11.6177C2.24849 11.1448 2.99176 11.1546 2.99176 11.1546C3.75644 11.2084 4.15958 11.9395 4.15958 11.9395C4.83923 13.1042 5.94159 12.7671 6.37593 12.5726C6.44445 12.0802 6.64143 11.7443 6.85982 11.5541C5.16774 11.3614 3.38939 10.708 3.38939 7.78938C3.38939 6.95802 3.6867 6.27838 4.17426 5.74493C4.09535 5.55346 3.83474 4.77899 4.24828 3.72985C4.24828 3.72985 4.88817 3.52491 6.34351 4.51043C6.95097 4.34159 7.60248 4.25717 8.25031 4.25411C8.89754 4.25717 9.54966 4.34159 10.1583 4.51043C11.6125 3.52491 12.2511 3.72985 12.2511 3.72985C12.6659 4.77899 12.4047 5.55407 12.3258 5.74555C12.8139 6.27899 13.1094 6.95863 13.1094 7.79C13.1094 10.7154 11.3274 11.3601 9.63102 11.5486C9.90447 11.7847 10.1479 12.2484 10.1479 12.9592C10.1479 13.9784 10.1394 14.7987 10.1394 15.0496C10.1394 15.2521 10.2764 15.49 10.6624 15.4148C13.6875 14.4066 15.8671 11.5522 15.8671 8.18763C15.8671 3.98066 12.4567 0.570801 8.25031 0.570801Z" fill="#2563EB"/>
</svg>
