<svg width="18" height="18" viewBox="0 0 18 18" fill="none" xmlns="http://www.w3.org/2000/svg">
<path d="M12.6955 17.4791C12.5397 17.4791 12.4092 17.4268 12.3039 17.3223C12.1985 17.2178 12.1458 17.0914 12.1458 16.9433C12.1458 16.7952 12.1985 16.6683 12.3039 16.5625C12.4092 16.4567 12.5397 16.4039 12.6955 16.4039C13.7318 16.3985 14.6076 16.0369 15.3229 15.3189C16.0382 14.601 16.3985 13.7265 16.4038 12.6955C16.4038 12.5458 16.4561 12.4181 16.5607 12.3124C16.6652 12.2067 16.7916 12.1538 16.9397 12.1538C17.0878 12.1538 17.2147 12.2067 17.3205 12.3124C17.4262 12.4181 17.4791 12.5458 17.4791 12.6955C17.4791 14.0252 17.0143 15.1549 16.0846 16.0846C15.1549 17.0143 14.0252 17.4791 12.6955 17.4791ZM1.05862 5.85417C0.906319 5.85417 0.77861 5.80226 0.675499 5.69846C0.572416 5.59464 0.520874 5.46599 0.520874 5.31252C0.520874 3.98281 0.987326 2.85178 1.92023 1.91942C2.85315 0.987055 3.98124 0.520874 5.3045 0.520874C5.45424 0.520874 5.58194 0.572387 5.68762 0.675415C5.79332 0.778443 5.84617 0.90611 5.84617 1.05842C5.84617 1.21072 5.79332 1.33842 5.68762 1.44152C5.58194 1.54462 5.45424 1.59617 5.3045 1.59617C4.26818 1.6015 3.39238 1.96314 2.6771 2.6811C1.96181 3.39905 1.6015 4.27351 1.59617 5.3045C1.59617 5.46025 1.54465 5.5908 1.44162 5.69614C1.33858 5.80149 1.21092 5.85417 1.05862 5.85417ZM14.0705 3.39117C14.1859 3.50555 14.2436 3.63456 14.2436 3.77819C14.2436 3.9218 14.1859 4.05129 14.0705 4.16667L9.65223 8.57692C9.53684 8.68696 9.41131 8.7394 9.27563 8.73423C9.13995 8.72906 9.01709 8.673 8.90706 8.56604C8.79167 8.44936 8.73531 8.31721 8.73798 8.1696C8.74066 8.02199 8.79702 7.89549 8.90706 7.79008L13.2965 3.39267C13.4106 3.27728 13.5393 3.21958 13.6825 3.21958C13.8258 3.21958 13.9551 3.27678 14.0705 3.39117ZM15.0689 5.80771C15.1843 5.9231 15.242 6.05192 15.242 6.19419C15.242 6.33645 15.1843 6.46296 15.0689 6.57373L11.359 10.2756C11.2436 10.391 11.1167 10.4466 10.9784 10.4423C10.84 10.438 10.7158 10.3788 10.6058 10.2648C10.4957 10.1481 10.4434 10.0171 10.4487 9.87179C10.4541 9.7265 10.5117 9.59883 10.6218 9.48879L14.3029 5.80771C14.4136 5.69233 14.5401 5.63464 14.6824 5.63464C14.8247 5.63464 14.9535 5.69233 15.0689 5.80771ZM3.36379 14.141C2.31358 13.0908 1.78287 11.8301 1.77164 10.359C1.76044 8.88784 2.2826 7.62449 3.33815 6.56894L5.13623 4.77085C5.27871 4.62984 5.44099 4.55933 5.62304 4.55933C5.8051 4.55933 5.96367 4.62689 6.09875 4.76202L6.54006 5.20354C6.67788 5.34136 6.79808 5.49147 6.90065 5.65387C7.0032 5.81626 7.05769 6.00483 7.0641 6.21958L10.157 3.13464C10.2678 3.01927 10.3943 2.96158 10.5366 2.96158C10.6788 2.96158 10.8077 3.01927 10.923 3.13464C11.0384 3.25003 11.0961 3.37886 11.0961 3.52112C11.0961 3.66339 11.0384 3.7899 10.923 3.90065L7.12337 7.70033L6.41825 8.44231L6.61377 8.63781C7.10202 9.12606 7.34801 9.71046 7.35175 10.391C7.35549 11.0716 7.11475 11.6544 6.62954 12.1397L6.45992 12.3093C6.34454 12.4247 6.21767 12.4802 6.07931 12.4759C5.94096 12.4717 5.81677 12.4125 5.70673 12.2984C5.59669 12.1803 5.54167 12.0478 5.54167 11.9009C5.54167 11.754 5.59669 11.6279 5.70673 11.5224L5.867 11.3622C6.12982 11.0993 6.25803 10.7743 6.25162 10.387C6.24521 9.99971 6.10999 9.67234 5.84598 9.40489L5.34298 8.89904C5.20623 8.76655 5.13785 8.60923 5.13785 8.42708C5.13785 8.24493 5.20542 8.08642 5.34054 7.95154L5.75644 7.5561C5.97759 7.32939 6.08817 7.05717 6.08817 6.73942C6.08817 6.42168 5.97759 6.15224 5.75644 5.93108L5.63623 5.81087L4.09133 7.32694C3.25267 8.1656 2.83974 9.17575 2.85256 10.3574C2.86538 11.539 3.29112 12.5492 4.12979 13.3878C4.96847 14.2265 5.97239 14.6458 7.14154 14.6458C8.31068 14.6458 9.31157 14.2265 10.1442 13.3878L14.5137 9.02544C14.6317 8.90808 14.7618 8.84939 14.9041 8.84939C15.0463 8.84939 15.1729 8.90708 15.2836 9.02246C15.399 9.13321 15.4567 9.25972 15.4567 9.402C15.4567 9.54426 15.398 9.67406 15.2806 9.79137L10.9109 14.1407C9.86169 15.1965 8.60544 15.7243 7.14212 15.7243C5.67879 15.7243 4.41935 15.1966 3.36379 14.141Z" fill="#2563EB"/>
</svg>
